<svg xmlns="http://www.w3.org/2000/svg" xmlns:se="http://svg-edit.googlecode.com" xmlns:xlink="http://www.w3.org/1999/xlink" xmlns:dc="http://purl.org/dc/elements/1.1/" xmlns:cc="http://creativecommons.org/ns#" xmlns:rdf="http://www.w3.org/1999/02/22-rdf-syntax-ns#" xmlns:inkscape="http://www.inkscape.org/namespaces/inkscape" width="777" height="480" style="">                                    <title>my vector image</title>                                    <!-- Created with Vector Paint - http://www.vectorpaint.yaks.com/ https://chrome.google.com/webstore/detail/hnbpdiengicdefcjecjbnjnoifekhgdo -->                                    <rect id="backgroundrect" width="100%" height="100%" x="0" y="0" fill="#FFFFFF" stroke="none"/>                                <g class="currentLayer" style=""><title>Layer 1</title><polyline fill="#ffffff" stroke="#222222" stroke-width="4" stroke-linejoin="round" stroke-dashoffset="" fill-rule="nonzero" marker-start="" marker-mid="" marker-end="" id="svg_1" points="81.97776853265624,287.3055378871942 82.67221294950592,285.9166490534948 83.36665736635562,283.83331580294566 84.75554620005504,281.05553813554684 86.14443503375445,276.88887163444866 90.31110153485265,265.7777609648534 93.78332361910117,252.5833170447091 97.25554570334967,238.69442870771505 99.3388789538988,231.74998453921802 102.1166566212976,218.55554061907367 104.19998987184671,205.36109669892932 106.28332312239581,193.55554161248438 106.97776753924553,187.99998627768676 108.36665637294493,178.9722088586406 109.06110078979461,173.416653523843 109.06110078979461,169.94443143959447 109.06110078979461,169.24998702274476 109.06110078979461,167.86109818904538 109.06110078979461,168.55554260589506 109.06110078979461,169.94443143959447 108.36665637294493,172.7222091069933 108.36665637294493,180.36109769234002 108.36665637294493,190.08331952823585 109.75554520664433,199.80554136413167 111.14443404034374,203.9722078652299 113.92221170774258,212.30554086742634 116.69998937514136,218.55554061907367 120.17221145938989,223.41665153702155 122.25554470993897,224.805540370721 127.81110004473659,225.4999847875707 133.36665537953422,224.805540370721 140.31109954803122,221.33331828647246 144.47776604912946,217.861096202224 152.81109905132587,208.1388743663281 161.14443205352234,195.63887486303346 169.47776505571875,181.0555421091897 173.64443155681698,173.416653523843 181.28332014216372,158.13887635314953 188.92220872751042,143.55554359930576 195.17220847915775,130.3610996791614 197.25554172970686,124.8055443443638 202.11665264765477,116.47221134216738 204.19998589820392,110.91665600736975 204.89443031505363,108.13887833997094 204.89443031505363,107.44443392312124 204.19998589820392,106.74998950627153 202.8110970645045,108.13887833997094 198.64443056340627,113.69443367476858 195.17220847915775,118.55554459271647 188.22776431066075,132.44443292971053 181.9777645590134,148.4166545172537 177.1166536410655,165.77776493849626 175.0333203905164,174.80554235754238 172.25554272311757,192.86109719563467 169.47776505571875,211.6110964505766 168.08887622201934,231.74998453921802 168.08887622201934,242.1666507919635 166.69998738831993,263.6944277143043 164.61665413777087,285.9166490534948 161.83887647037204,308.13887039268525 159.75554321982293,319.9444254791302 155.5888767187247,340.7777579846213 152.11665463447622,356.05553515531466 150.0333213839271,365.0833125743609 " style="color: rgb(0, 0, 0);"/><polyline fill="#ffffff" stroke="#222222" stroke-width="4" stroke-linejoin="round" stroke-dashoffset="" fill-rule="nonzero" marker-start="" marker-mid="" marker-end="" id="svg_2" points="183.78332004282262,299.11109297363913 183.08887562597295,299.80553739048884 183.78332004282262,302.58331505788766 183.78332004282262,305.3610927252864 184.47776445967236,306.74998155898584 185.17220887652203,308.13887039268525 186.56109771022145,308.13887039268525 188.64443096077056,307.44442597583554 190.03331979446997,306.05553714213613 192.81109746186874,303.27775947473737 192.81109746186874,301.88887064103795 192.11665304501904,300.49998180733854 190.72776421131965,300.49998180733854 186.56109771022145,301.19442622418825 182.39443120912324,304.6666483084368 " style="color: rgb(0, 0, 0);"/><polyline fill="#ffffff" stroke="#222222" stroke-width="4" stroke-linejoin="round" stroke-dashoffset="" fill-rule="nonzero" marker-start="" marker-mid="" marker-end="" id="svg_3" points="209.4777634662616,256.74998354580725 208.78331904941192,258.13887237950667 208.78331904941192,259.5277612132061 208.78331904941192,262.3055388806049 208.78331904941192,269.9444274659516 208.78331904941192,278.9722048849978 208.78331904941192,288.6944267208936 208.78331904941192,293.5555376388415 208.78331904941192,301.88887064103795 208.78331904941192,308.83331480953495 208.78331904941192,311.6110924769338 208.78331904941192,315.777758978032 209.4777634662616,317.8610922285811 209.4777634662616,319.2499810622805 209.4777634662616,319.9444254791302 209.4777634662616,319.9444254791302 209.4777634662616,320.6388698959799 209.4777634662616,317.8610922285811 209.4777634662616,317.1666478117314 209.4777634662616,315.777758978032 210.17220788311133,312.3055368937835 210.86665229996103,309.52775922638466 213.64442996735986,303.97220389158707 217.11665205160838,299.80553739048884 219.19998530215744,298.4166485567894 219.89442971900718,298.4166485567894 221.28331855270653,301.19442622418825 221.28331855270653,312.3055368937835 221.97776296955627,325.49998081392783 " style="color: rgb(0, 0, 0);"/><polyline fill="#ffffff" stroke="#222222" stroke-width="4" stroke-linejoin="round" stroke-dashoffset="" fill-rule="nonzero" marker-start="" marker-mid="" marker-end="" id="svg_4" points="233.08887363915153,300.49998180733854 234.47776247285094,300.49998180733854 235.17220688970067,299.80553739048884 237.25554014024976,299.80553739048884 240.7277622244983,300.49998180733854 244.89442872559647,301.88887064103795 246.97776197614562,305.3610927252864 248.36665080984497,307.44442597583554 249.0610952266947,312.3055368937835 249.7555396435444,317.1666478117314 249.7555396435444,318.5555366454308 250.44998406039412,320.6388698959799 250.44998406039412,321.3333143128296 251.14442847724382,322.0277587296793 250.44998406039412,322.0277587296793 " style="color: rgb(0, 0, 0);"/><polyline fill="#ffffff" stroke="#222222" stroke-width="4" stroke-linejoin="round" stroke-dashoffset="" fill-rule="nonzero" marker-start="" marker-mid="" marker-end="" id="svg_5" points="253.92220614464264,309.52775922638466 253.22776172779297,308.83331480953495 252.53331731094323,308.83331480953495 248.36665080984497,308.83331480953495 246.28331755929588,309.52775922638466 240.7277622244983,311.6110924769338 235.86665130655035,313.6944257274829 233.78331805600124,316.4722033948817 233.08887363915153,317.8610922285811 233.08887363915153,317.8610922285811 236.56109572340003,315.777758978032 242.11665105819762,310.91664806008407 " style="color: rgb(0, 0, 0);"/><polyline fill="#ffffff" stroke="#222222" stroke-width="4" stroke-linejoin="round" stroke-dashoffset="" fill-rule="nonzero" marker-start="" marker-mid="" marker-end="" id="svg_6" points="264.3388723973882,299.80553739048884 264.3388723973882,301.88887064103795 265.7277612310876,303.97220389158707 265.7277612310876,306.05553714213613 266.4222056479373,309.52775922638466 267.11665006478694,312.9999813106332 267.11665006478694,315.0833145611823 266.4222056479373,316.4722033948817 266.4222056479373,317.1666478117314 266.4222056479373,317.1666478117314 266.4222056479373,317.1666478117314 266.4222056479373,314.3888701443326 266.4222056479373,312.3055368937835 266.4222056479373,309.52775922638466 266.4222056479373,305.3610927252864 267.81109448163664,302.58331505788766 267.81109448163664,301.19442622418825 269.19998331533606,301.19442622418825 271.9777609827349,303.97220389158707 274.061094233284,309.52775922638466 274.7555386501337,312.3055368937835 276.1444274838331,317.1666478117314 276.1444274838331,319.2499810622805 276.8388719006828,319.2499810622805 277.5333163175325,318.5555366454308 278.22776073438223,315.0833145611823 280.3110939849313,310.91664806008407 281.6999828186307,307.44442597583554 282.3944272354804,306.05553714213613 283.7833160691798,305.3610927252864 285.86664931972894,307.44442597583554 287.25553815342835,312.9999813106332 287.94998257027805,317.1666478117314 288.64442698712776,326.19442523077754 290.03331582082717,331.74998056557513 " style="color: rgb(0, 0, 0);"/><polyline fill="#ffffff" stroke="#222222" stroke-width="4" stroke-linejoin="round" stroke-dashoffset="" fill-rule="nonzero" marker-start="" marker-mid="" marker-end="" id="svg_7" points="296.28331557247446,302.58331505788766 296.28331557247446,303.97220389158707 296.97775998932417,305.3610927252864 296.97775998932417,307.44442597583554 298.3666488230236,312.3055368937835 299.755537656723,316.4722033948817 300.4499820735727,318.5555366454308 300.4499820735727,319.2499810622805 301.1444264904224,319.2499810622805 301.1444264904224,317.8610922285811 301.8388709072721,314.3888701443326 301.8388709072721,312.3055368937835 301.8388709072721,308.83331480953495 302.5333153241218,306.74998155898584 302.5333153241218,306.05553714213613 302.5333153241218,306.05553714213613 303.2277597409715,306.05553714213613 305.3110929915206,308.13887039268525 307.3944262420697,310.91664806008407 308.0888706589194,312.3055368937835 308.7833150757691,314.3888701443326 309.4777594926188,315.0833145611823 309.4777594926188,315.0833145611823 309.4777594926188,313.6944257274829 310.8666483263182,310.91664806008407 311.56109274316793,306.74998155898584 312.25553716001764,303.97220389158707 312.94998157686734,303.97220389158707 314.33887041056676,306.74998155898584 316.4222036611159,316.4722033948817 317.8110924948152,322.0277587296793 " style="color: rgb(0, 0, 0);"/><polyline fill="#ffffff" stroke="#222222" stroke-width="4" stroke-linejoin="round" stroke-dashoffset="" fill-rule="nonzero" marker-start="" marker-mid="" marker-end="" id="svg_8" points="326.5610921471215,308.83331480953495 327.9499809808209,309.52775922638466 329.33886981452025,309.52775922638466 334.1999807324682,309.52775922638466 337.6722028167167,308.13887039268525 340.44998048411554,307.44442597583554 341.14442490096525,306.74998155898584 342.5333137346646,305.3610927252864 341.8388693178149,304.6666483084368 341.8388693178149,304.6666483084368 339.06109165041613,306.05553714213613 333.5055363156185,308.83331480953495 329.33886981452025,312.3055368937835 327.2555365639712,315.777758978032 327.2555365639712,317.1666478117314 329.33886981452025,319.2499810622805 337.6722028167167,317.1666478117314 " style="color: rgb(0, 0, 0);"/><polyline fill="#ffffff" stroke="#222222" stroke-width="4" stroke-linejoin="round" stroke-dashoffset="" fill-rule="nonzero" marker-start="" marker-mid="" marker-end="" id="svg_9" points="370.8666459421325,255.36109471210787 370.8666459421325,256.05553912895755 370.8666459421325,257.44442796265696 370.1722015252828,262.9999832974546 370.1722015252828,267.8610942154025 369.47775710843314,277.58331605129837 368.7833126915834,287.9999823040439 368.08886827473367,297.7222041399397 368.08886827473367,302.58331505788766 368.08886827473367,310.22220364323437 368.08886827473367,315.777758978032 368.08886827473367,319.2499810622805 368.7833126915834,319.9444254791302 368.7833126915834,321.3333143128296 368.7833126915834,322.0277587296793 " style="color: rgb(0, 0, 0);"/><polyline fill="#ffffff" stroke="#222222" stroke-width="4" stroke-linejoin="round" stroke-dashoffset="" fill-rule="nonzero" marker-start="" marker-mid="" marker-end="" id="svg_10" points="368.5055349248435,310.91664806008407 367.8110905079938,310.22220364323437 367.11664609114416,310.22220364323437 366.4222016742944,310.22220364323437 365.7277572574447,310.22220364323437 363.64442400689563,310.22220364323437 360.8666463394968,310.22220364323437 359.47775750579734,310.22220364323437 357.3944242552483,310.22220364323437 355.31109100469916,310.91664806008407 353.92220217099975,313.6944257274829 352.5333133373004,315.0833145611823 351.144424503601,317.8610922285811 351.144424503601,319.2499810622805 351.8388689204507,319.2499810622805 356.69997983839863,317.1666478117314 362.9499795900459,314.3888701443326 367.11664609114416,311.6110924769338 369.1999793416932,309.52775922638466 370.58886817539263,307.44442597583554 " style="color: rgb(0, 0, 0);"/><polyline fill="#ffffff" stroke="#222222" stroke-width="4" stroke-linejoin="round" stroke-dashoffset="" fill-rule="nonzero" marker-start="" marker-mid="" marker-end="" id="svg_11" points="324.1999811298325,352.58331307106624 324.1999811298325,353.97220190476565 325.5888699635319,356.7499795721644 329.7555364646301,359.52775723956324 332.5333141320289,361.61109049011236 339.477758300526,363.6944237406615 348.5055357195721,365.0833125743609 358.9222019723176,363.6944237406615 371.42220147561227,358.83331282271354 376.9777568104099,353.97220190476565 388.08886748000515,341.472202401471 396.42220048220156,325.49998081392783 403.36664465069856,306.74998155898584 406.1444223180974,297.02775972309 408.9221999854962,276.19442721759896 409.6166444023459,256.74998354580725 407.53331115179685,235.91665104031622 406.1444223180974,226.19442920442035 404.06108906754827,206.7499855326287 403.36664465069856,187.99998627768676 402.6722002338489,171.33332027329388 402.6722002338489,163.69443168794714 403.36664465069856,150.4999877678028 404.755533484398,140.08332151505726 406.1444223180974,132.44443292971053 406.8388667349471,130.3610996791614 407.53331115179685,127.58332201176262 408.2277555686465,126.19443317806319 408.2277555686465,125.49998876121352 408.2277555686465,124.8055443443638 408.2277555686465,124.8055443443638 408.2277555686465,124.8055443443638 " style="color: rgb(0, 0, 0);"/><polyline fill="#ffffff" stroke="#222222" stroke-width="4" stroke-linejoin="round" stroke-dashoffset="" fill-rule="nonzero" marker-start="" marker-mid="" marker-end="" id="svg_12" points="407.53331115179685,171.33332027329388 408.2277555686465,170.63887585644417 408.9221999854962,169.94443143959447 410.31108881919556,168.55554260589506 415.1721997371435,165.08332052164656 422.81108832249026,160.91665402054835 429.75553249098726,158.83332076999923 432.5333101583861,158.83332076999923 437.394421076334,159.52776518684894 439.47775432688314,162.30554285424773 439.47775432688314,166.47220935534597 438.7833099100335,169.94443143959447 434.6166434089352,179.66665327549032 429.0610880741375,189.38887511138617 422.81108832249026,198.41665253043226 419.33886623824174,201.8888746146808 415.1721997371435,206.7499855326287 412.3944220697448,210.91665203372693 411.0055332360453,212.99998528427605 410.31108881919556,213.69442970112573 410.31108881919556,215.08331853482514 410.31108881919556,215.08331853482514 413.78331090344415,214.3888741179754 417.9499774045423,212.99998528427605 430.44997690783697,207.4444299494784 442.9499764111317,202.58331903153046 454.7555314975766,199.80554136413167 461.0055312492239,198.41665253043226 472.8110863356688,199.111096947282 483.922197005264,202.58331903153046 492.25553000746055,208.1388743663281 496.4221965085587,215.08331853482514 497.1166409254084,219.24998503592334 494.33886325800967,229.6666512886689 487.3944190895126,242.1666507919635 482.53330817156467,248.41665054361084 470.03330866827,259.5277612132061 455.44997591442626,272.0277607165007 440.86664316058256,283.83331580294566 434.6166434089352,288.6944267208936 423.5055327393399,299.80553739048884 413.78331090344415,310.22220364323437 406.1444223180974,320.6388698959799 400.5888669832998,328.97220289817636 399.1999781496004,333.13886939927454 397.811089315901,337.3055359003728 399.1999781496004,340.0833135677716 401.2833114001495,340.7777579846213 414.47775532029385,337.3055359003728 438.7833099100335,326.19442523077754 464.47775333347244,315.0833145611823 478.36664167046644,309.52775922638466 509.61664042870314,300.49998180733854 544.3388612711883,292.8610932219918 581.1444153642225,286.6110934703445 599.8944146191644,284.52776021979537 637.3944131290484,281.05553813554684 672.8110783883833,280.36109371869713 707.5332992308684,281.74998255239655 " style="color: rgb(0, 0, 0);"/><polyline fill="#ffffff" stroke="#222222" stroke-width="4" stroke-linejoin="round" stroke-dashoffset="" fill-rule="nonzero" marker-start="" marker-mid="" marker-end="" id="svg_13" points="442.25553199428197,309.52775922638466 445.0333096616808,309.52775922638466 449.1999761627789,306.05553714213613 453.36664266387714,300.49998180733854 454.7555314975766,297.7222041399397 456.8388647481257,292.8610932219918 456.8388647481257,289.3888711377433 456.14442033127597,288.6944267208936 456.14442033127597,287.9999823040439 454.06108708072685,289.3888711377433 450.5888649964783,293.5555376388415 447.81108732907944,299.11109297363913 446.4221984953801,302.58331505788766 445.7277540785305,307.44442597583554 446.4221984953801,310.22220364323437 447.81108732907944,310.91664806008407 449.8944205796287,310.22220364323437 460.31108683237414,301.88887064103795 " style="color: rgb(0, 0, 0);"/><polyline fill="#ffffff" stroke="#222222" stroke-width="4" stroke-linejoin="round" stroke-dashoffset="" fill-rule="nonzero" marker-start="" marker-mid="" marker-end="" id="svg_14" points="353.64442440425984,308.83331480953495 352.94997998741013,310.22220364323437 352.2555355705604,311.6110924769338 350.866646736861,316.4722033948817 350.1722023200113,319.9444254791302 350.1722023200113,322.0277587296793 351.5610911537107,323.4166475633787 352.2555355705604,323.4166475633787 356.42220207165866,320.6388698959799 362.67220182330595,314.3888701443326 365.44997949070483,309.52775922638466 366.1444239075545,308.13887039268525 366.1444239075545,305.3610927252864 364.75553507385507,304.6666483084368 361.2833129896066,305.3610927252864 357.811090905358,306.74998155898584 351.5610911537107,311.6110924769338 346.00553581891313,316.4722033948817 344.6166469852137,318.5555366454308 " style="color: rgb(0, 0, 0);"/><polyline fill="#ffffff" stroke="#222222" stroke-width="4" stroke-linejoin="round" stroke-dashoffset="" fill-rule="nonzero" marker-start="" marker-mid="" marker-end="" id="svg_15" points="366.1444239075545,305.3610927252864 365.44997949070483,304.6666483084368 365.44997949070483,303.27775947473737 364.75553507385507,300.49998180733854 364.75553507385507,290.083315554593 365.44997949070483,269.9444274659516 370.3110904086527,240.77776195826416 377.9499789939994,207.4444299494784 " style="color: rgb(0, 0, 0);"/><polyline fill="#ffffff" stroke="#222222" stroke-width="4" stroke-linejoin="round" stroke-dashoffset="" fill-rule="nonzero" marker-start="" marker-mid="" marker-end="" id="svg_16" points="469.75553090153016,287.9999823040439 469.75553090153016,288.6944267208936 469.75553090153016,289.3888711377433 469.75553090153016,290.083315554593 469.75553090153016,290.7777599714427 469.75553090153016,292.8610932219918 469.75553090153016,295.6388708893906 469.06108648468046,297.02775972309 469.06108648468046,298.4166485567894 469.06108648468046,299.11109297363913 468.3666420678308,300.49998180733854 468.3666420678308,300.49998180733854 470.44997531837976,297.02775972309 471.14441973522946,294.9444264725409 472.5333085689288,291.4722043882924 473.9221974026283,288.6944267208936 474.61664181947805,287.3055378871942 475.3110862363277,287.3055378871942 476.0055306531774,286.6110934703445 476.6999750700271,286.6110934703445 478.0888639037265,286.6110934703445 479.477752737426,287.3055378871942 481.56108598797505,290.083315554593 482.2555304048247,292.8610932219918 482.2555304048247,294.2499820556912 482.2555304048247,295.6388708893906 482.2555304048247,297.02775972309 482.2555304048247,297.7222041399397 482.2555304048247,297.7222041399397 482.2555304048247,298.4166485567894 482.2555304048247,298.4166485567894 482.2555304048247,298.4166485567894 482.94997482167446,297.7222041399397 " style="color: rgb(0, 0, 0);"/><polyline fill="#ffffff" stroke="#222222" stroke-width="4" stroke-linejoin="round" stroke-dashoffset="" fill-rule="nonzero" marker-start="" marker-mid="" marker-end="" id="svg_17" points="489.1999745733218,283.83331580294566 489.89441899017146,285.2222046366451 490.5888634070212,285.2222046366451 490.5888634070212,285.9166490534948 491.2833078238709,286.6110934703445 491.9777522407207,287.3055378871942 491.9777522407207,287.3055378871942 492.67219665757034,287.9999823040439 492.67219665757034,287.9999823040439 492.67219665757034,288.6944267208936 493.36664107442004,288.6944267208936 493.36664107442004,288.6944267208936 493.36664107442004,288.6944267208936 493.36664107442004,288.6944267208936 493.36664107442004,289.3888711377433 494.06108549126975,290.083315554593 494.06108549126975,290.083315554593 494.06108549126975,292.16664880514213 494.7555299081194,292.8610932219918 494.7555299081194,293.5555376388415 494.7555299081194,294.2499820556912 494.7555299081194,294.2499820556912 495.44997432496905,291.4722043882924 496.1444187418187,289.3888711377433 498.2277519923679,285.2222046366451 499.6166408260673,281.74998255239655 500.311085242917,280.36109371869713 501.6999740766164,278.9722048849978 502.3944184934661,278.9722048849978 503.08886291031587,279.66664930184743 504.4777517440152,280.36109371869713 505.1721961608649,281.74998255239655 505.8666405777146,283.83331580294566 505.8666405777146,285.2222046366451 505.8666405777146,285.9166490534948 505.1721961608649,286.6110934703445 506.56108499456434,285.2222046366451 508.6444182451134,280.36109371869713 512.116640329362,276.19442721759896 514.8944179967608,273.41664955020013 515.5888624136105,272.7222051333504 517.6721956641596,272.7222051333504 520.4499733315585,274.11109396704984 522.5333065821075,277.58331605129837 522.5333065821075,280.36109371869713 523.2277509989572,283.83331580294566 522.5333065821075,287.3055378871942 522.5333065821075,289.3888711377433 522.5333065821075,290.083315554593 521.8388621652578,290.7777599714427 521.8388621652578,291.4722043882924 522.5333065821075,291.4722043882924 523.2277509989572,290.7777599714427 " style="color: rgb(0, 0, 0);"/><polyline fill="#ffffff" stroke="#222222" stroke-width="4" stroke-linejoin="round" stroke-dashoffset="" fill-rule="nonzero" marker-start="" marker-mid="" marker-end="" id="svg_18" points="532.949972834853,277.58331605129837 532.949972834853,278.9722048849978 532.949972834853,279.66664930184743 533.6444172517027,281.05553813554684 535.0333060854022,283.83331580294566 537.811083752801,285.2222046366451 539.1999725865004,285.2222046366451 541.2833058370495,283.83331580294566 543.3666390875986,280.36109371869713 544.0610835044483,276.19442721759896 543.3666390875986,274.11109396704984 539.8944170033501,271.333316299651 536.4221949191016,270.6388718828013 533.6444172517027,272.0277607165007 533.6444172517027,273.41664955020013 " style="color: rgb(0, 0, 0);"/><polyline fill="#ffffff" stroke="#222222" stroke-width="4" stroke-linejoin="round" stroke-dashoffset="" fill-rule="nonzero" marker-start="" marker-mid="" marker-end="" id="svg_19" points="553.0888609234944,269.2499830491019 553.7833053403441,271.333316299651 555.1721941740435,273.41664955020013 556.5610830077429,276.19442721759896 557.2555274245926,276.19442721759896 558.644416258292,276.88887163444866 560.0333050919915,276.19442721759896 561.4221939256909,273.41664955020013 561.4221939256909,271.333316299651 562.1166383425406,267.1666497985528 561.4221939256909,263.6944277143043 560.7277495088412,261.6110944637552 560.7277495088412,260.9166500469055 560.0333050919915,260.2222056300558 " style="color: rgb(0, 0, 0);"/><polyline fill="#ffffff" stroke="#222222" stroke-width="4" stroke-linejoin="round" stroke-dashoffset="" fill-rule="nonzero" marker-start="" marker-mid="" marker-end="" id="svg_20" points="585.0333040985807,253.27776146155878 582.2555264311819,256.05553912895755 577.394415513234,259.5277612132061 573.9221934289855,262.3055388806049 572.533304595286,263.6944277143043 571.8388601784363,265.7777609648534 571.8388601784363,266.47220538170313 573.9221934289855,267.1666497985528 575.3110822626849,267.1666497985528 580.8666375974825,267.8610942154025 585.0333040985807,267.8610942154025 587.8110817659796,269.2499830491019 588.5055261828293,269.2499830491019 589.199970599679,270.6388718828013 588.5055261828293,273.41664955020013 585.0333040985807,277.58331605129837 582.9499708480316,278.9722048849978 580.1721931806328,280.36109371869713 578.7833043469334,280.36109371869713 578.7833043469334,280.36109371869713 " style="color: rgb(0, 0, 0);"/><polyline fill="#ffffff" stroke="#222222" stroke-width="4" stroke-linejoin="round" stroke-dashoffset="" fill-rule="nonzero" marker-start="" marker-mid="" marker-end="" id="svg_21" points="601.6999701029736,247.02776170991143 601.0055256861239,248.41665054361084 600.3110812692742,248.41665054361084 598.9221924355747,249.80553937731028 596.8388591850257,252.5833170447091 594.7555259344766,255.36109471210787 594.0610815176269,258.13887237950667 593.3666371007772,259.5277612132061 593.3666371007772,260.2222056300558 593.3666371007772,261.6110944637552 594.7555259344766,262.9999832974546 596.144414768176,263.6944277143043 600.3110812692742,264.388872131154 604.4777477703724,265.0833165480037 607.2555254377712,266.47220538170313 608.6444142714706,267.1666497985528 608.6444142714706,267.8610942154025 607.9499698546209,269.9444274659516 605.1721921872221,273.41664955020013 603.088858936673,276.19442721759896 600.3110812692742,278.9722048849978 598.9221924355747,279.66664930184743 " style="color: rgb(0, 0, 0);"/><polyline fill="#ffffff" stroke="#222222" stroke-width="4" stroke-linejoin="round" stroke-dashoffset="" fill-rule="nonzero" marker-start="" marker-mid="" marker-end="" id="svg_22" points="611.1444141721296,244.94442845936234 611.8388585889793,244.24998404251264 614.6166362563781,242.1666507919635 616.6999695069272,240.77776195826416 620.1721915911758,238.69442870771505 622.2555248417248,237.30553987401564 623.6444136754242,236.61109545716593 625.0333025091236,236.61109545716593 626.422191342823,236.61109545716593 627.8110801765224,237.99998429086534 631.2833022607709,242.86109520881323 632.6721910944703,247.02776170991143 634.7555243450195,256.74998354580725 635.4499687618692,266.47220538170313 636.1444131787189,272.7222051333504 636.1444131787189,274.80553838389955 636.1444131787189,276.88887163444866 636.1444131787189,277.58331605129837 " style="color: rgb(0, 0, 0);"/><polyline fill="#ffffff" stroke="#222222" stroke-width="4" stroke-linejoin="round" stroke-dashoffset="" fill-rule="nonzero" marker-start="" marker-mid="" marker-end="" id="svg_23" points="636.1444131787189,249.80553937731028 634.7555243450195,250.49998379416 634.7555243450195,251.1944282110097 633.36663551132,252.5833170447091 631.9777466776206,253.97220587840852 627.8110801765224,258.13887237950667 622.9499692585745,262.3055388806049 620.1721915911758,265.0833165480037 619.477747174326,265.7777609648534 618.7833027574763,266.47220538170313 623.6444136754242,262.3055388806049 634.7555243450195,254.66665029525817 639.6166352629674,251.1944282110097 " style="color: rgb(0, 0, 0);"/><polyline fill="#ffffff" stroke="#222222" stroke-width="4" stroke-linejoin="round" stroke-dashoffset="" fill-rule="nonzero" marker-start="" marker-mid="" marker-end="" id="svg_24" points="723.3666319350415,295.6388708893906 726.1444096024402,292.8610932219918 727.5332984361397,290.7777599714427 " style="color: rgb(0, 0, 0);"/></g></svg>